#tb 0: 1001/12000
0,          0,          0,        1,    84480, 0xa7776101
0,          1,          1,        1,    84480, 0xeb1560ca
0,          2,          2,        1,    84480, 0x7a4e6123
0,          3,          3,        1,    84480, 0x7a4e6123
0,          4,          4,        1,    84480, 0x8ee36111
0,          5,          5,        1,    84480, 0x3c2a6110
0,          6,          6,        1,    84480, 0x3c2a6110
0,          7,          7,        1,    84480, 0x961e607d
0,          8,          8,        1,    84480, 0xb7b5615d
0,          9,          9,        1,    84480, 0x636d6011
0,         10,         10,        1,    84480, 0x69fd6111
0,         11,         11,        1,    84480, 0x636d6011
0,         12,         12,        1,    84480, 0x69fd6111
0,         13,         13,        1,    84480, 0x636d6011
0,         14,         14,        1,    84480, 0x69fd6111
0,         15,         15,        1,    84480, 0x636d6011
0,         16,         16,        1,    84480, 0x2d1a610a
0,         17,         17,        1,    84480, 0x268a600a
0,         18,         18,        1,    84480, 0x2d1a610a
0,         19,         19,        1,    84480, 0x268a600a
0,         20,         20,        1,    84480, 0x2d1a610a
0,         21,         21,        1,    84480, 0x268a600a
0,         22,         22,        1,    84480, 0x2d1a610a
0,         23,         23,        1,    84480, 0x268a600a
0,         24,         24,        1,    84480, 0xa88261c9
0,         25,         25,        1,    84480, 0x98e95fc6
0,         26,         26,        1,    84480, 0x9f7960c6
0,         27,         27,        1,    84480, 0x98e95fc6
0,         28,         28,        1,    84480, 0x9f7960c6
0,         29,         29,        1,    84480, 0x98e95fc6
